<mxfile host="65bd71144e" modified="2021-01-19T04:08:52.718Z" agent="5.0 (X11; Linux x86_64) AppleWebKit/537.36 (KHTML, like Gecko) Code/1.52.1 Chrome/83.0.4103.122 Electron/9.3.5 Safari/537.36" version="14.2.4" etag="cZsE1nVQiaeEWepRTLBH" type="embed">
    <diagram id="-PA98PKUdKKsn3xazrKu" name="Page-1">
        <mxGraphModel dx="1374" dy="795" grid="1" gridSize="10" guides="1" tooltips="1" connect="1" arrows="1" fold="1" page="1" pageScale="1" pageWidth="827" pageHeight="1169" math="0" shadow="0">
            <root>
                <mxCell id="0"/>
                <mxCell id="1" parent="0"/>
                <mxCell id="7" style="edgeStyle=orthogonalEdgeStyle;orthogonalLoop=1;jettySize=auto;html=1;exitX=0.5;exitY=1;exitDx=0;exitDy=0;sketch=1;curved=1;" edge="1" parent="1" source="2" target="5">
                    <mxGeometry relative="1" as="geometry"/>
                </mxCell>
                <mxCell id="2" value="Run" style="whiteSpace=wrap;html=1;sketch=1;rounded=1;" vertex="1" parent="1">
                    <mxGeometry x="50" y="100" width="120" height="60" as="geometry"/>
                </mxCell>
                <mxCell id="3" value="cmd/kube-apiserver/app/server.go" style="text;html=1;strokeColor=none;fillColor=none;align=center;verticalAlign=middle;whiteSpace=wrap;sketch=1;rounded=1;" vertex="1" parent="1">
                    <mxGeometry y="50" width="250" height="20" as="geometry"/>
                </mxCell>
                <mxCell id="10" style="edgeStyle=orthogonalEdgeStyle;orthogonalLoop=1;jettySize=auto;html=1;exitX=1;exitY=0.5;exitDx=0;exitDy=0;entryX=0;entryY=0.5;entryDx=0;entryDy=0;sketch=1;curved=1;" edge="1" parent="1" source="5" target="9">
                    <mxGeometry relative="1" as="geometry"/>
                </mxCell>
                <mxCell id="17" style="edgeStyle=orthogonalEdgeStyle;orthogonalLoop=1;jettySize=auto;html=1;exitX=0.5;exitY=1;exitDx=0;exitDy=0;entryX=0.5;entryY=0;entryDx=0;entryDy=0;sketch=1;curved=1;" edge="1" parent="1" source="5" target="13">
                    <mxGeometry relative="1" as="geometry"/>
                </mxCell>
                <mxCell id="5" value="CreateServerChain" style="whiteSpace=wrap;html=1;sketch=1;rounded=1;" vertex="1" parent="1">
                    <mxGeometry x="50" y="210" width="120" height="60" as="geometry"/>
                </mxCell>
                <mxCell id="12" style="edgeStyle=orthogonalEdgeStyle;orthogonalLoop=1;jettySize=auto;html=1;exitX=1;exitY=0.5;exitDx=0;exitDy=0;sketch=1;curved=1;" edge="1" parent="1" source="9" target="11">
                    <mxGeometry relative="1" as="geometry"/>
                </mxCell>
                <mxCell id="33" style="edgeStyle=orthogonalEdgeStyle;orthogonalLoop=1;jettySize=auto;html=1;exitX=0.5;exitY=1;exitDx=0;exitDy=0;entryX=0.5;entryY=0;entryDx=0;entryDy=0;sketch=1;curved=1;" edge="1" parent="1" source="9" target="31">
                    <mxGeometry relative="1" as="geometry"/>
                </mxCell>
                <mxCell id="9" value="PrepareRun" style="whiteSpace=wrap;html=1;sketch=1;rounded=1;" vertex="1" parent="1">
                    <mxGeometry x="380" y="210" width="120" height="60" as="geometry"/>
                </mxCell>
                <mxCell id="11" value="Run" style="whiteSpace=wrap;html=1;sketch=1;rounded=1;" vertex="1" parent="1">
                    <mxGeometry x="680" y="230" width="120" height="60" as="geometry"/>
                </mxCell>
                <mxCell id="18" style="edgeStyle=orthogonalEdgeStyle;orthogonalLoop=1;jettySize=auto;html=1;exitX=0.5;exitY=1;exitDx=0;exitDy=0;sketch=1;curved=1;" edge="1" parent="1" source="13" target="14">
                    <mxGeometry relative="1" as="geometry"/>
                </mxCell>
                <mxCell id="36" style="edgeStyle=orthogonalEdgeStyle;orthogonalLoop=1;jettySize=auto;html=1;exitX=1;exitY=0.5;exitDx=0;exitDy=0;entryX=0;entryY=0.5;entryDx=0;entryDy=0;sketch=1;curved=1;" edge="1" parent="1" source="13" target="35">
                    <mxGeometry relative="1" as="geometry"/>
                </mxCell>
                <mxCell id="13" value="CreateNodeDialer" style="whiteSpace=wrap;html=1;sketch=1;rounded=1;" vertex="1" parent="1">
                    <mxGeometry x="50" y="330" width="120" height="60" as="geometry"/>
                </mxCell>
                <mxCell id="25" style="edgeStyle=orthogonalEdgeStyle;orthogonalLoop=1;jettySize=auto;html=1;exitX=0.5;exitY=1;exitDx=0;exitDy=0;sketch=1;curved=1;" edge="1" parent="1" source="14" target="16">
                    <mxGeometry relative="1" as="geometry"/>
                </mxCell>
                <mxCell id="14" value="CreateKubeAPIServerConfig" style="whiteSpace=wrap;html=1;sketch=1;rounded=1;" vertex="1" parent="1">
                    <mxGeometry x="50" y="450" width="170" height="60" as="geometry"/>
                </mxCell>
                <mxCell id="22" style="edgeStyle=orthogonalEdgeStyle;orthogonalLoop=1;jettySize=auto;html=1;exitX=0.5;exitY=1;exitDx=0;exitDy=0;entryX=0.5;entryY=0;entryDx=0;entryDy=0;sketch=1;curved=1;" edge="1" parent="1" source="16" target="21">
                    <mxGeometry relative="1" as="geometry"/>
                </mxCell>
                <mxCell id="16" value="createAPIExtensionsConfig&lt;br&gt;createAPIExtensionsServer" style="whiteSpace=wrap;html=1;sketch=1;rounded=1;" vertex="1" parent="1">
                    <mxGeometry x="50" y="555" width="170" height="60" as="geometry"/>
                </mxCell>
                <mxCell id="24" style="edgeStyle=orthogonalEdgeStyle;orthogonalLoop=1;jettySize=auto;html=1;exitX=0.5;exitY=1;exitDx=0;exitDy=0;entryX=0.5;entryY=0;entryDx=0;entryDy=0;sketch=1;curved=1;" edge="1" parent="1" source="21" target="23">
                    <mxGeometry relative="1" as="geometry"/>
                </mxCell>
                <mxCell id="21" value="CreateKubeAPIServer" style="whiteSpace=wrap;html=1;fillColor=#6a00ff;strokeColor=#3700CC;fontColor=#ffffff;sketch=1;rounded=1;" vertex="1" parent="1">
                    <mxGeometry x="50" y="650" width="170" height="60" as="geometry"/>
                </mxCell>
                <mxCell id="29" style="edgeStyle=orthogonalEdgeStyle;orthogonalLoop=1;jettySize=auto;html=1;exitX=0.5;exitY=1;exitDx=0;exitDy=0;entryX=0.5;entryY=0;entryDx=0;entryDy=0;sketch=1;curved=1;" edge="1" parent="1" source="23" target="28">
                    <mxGeometry relative="1" as="geometry"/>
                </mxCell>
                <mxCell id="23" value="*.GenericAPIServer.PrepareRun" style="whiteSpace=wrap;html=1;sketch=1;rounded=1;" vertex="1" parent="1">
                    <mxGeometry x="45" y="760" width="180" height="60" as="geometry"/>
                </mxCell>
                <mxCell id="26" value="kubeserver.NonBlockingRun" style="whiteSpace=wrap;html=1;sketch=1;rounded=1;" vertex="1" parent="1">
                    <mxGeometry x="45" y="940" width="180" height="60" as="geometry"/>
                </mxCell>
                <mxCell id="30" style="edgeStyle=orthogonalEdgeStyle;orthogonalLoop=1;jettySize=auto;html=1;exitX=0.5;exitY=1;exitDx=0;exitDy=0;entryX=0.5;entryY=0;entryDx=0;entryDy=0;sketch=1;curved=1;" edge="1" parent="1" source="28" target="26">
                    <mxGeometry relative="1" as="geometry"/>
                </mxCell>
                <mxCell id="28" value="createAggregatorServer" style="whiteSpace=wrap;html=1;sketch=1;rounded=1;" vertex="1" parent="1">
                    <mxGeometry x="45" y="850" width="175" height="60" as="geometry"/>
                </mxCell>
                <mxCell id="34" style="edgeStyle=orthogonalEdgeStyle;orthogonalLoop=1;jettySize=auto;html=1;exitX=0.5;exitY=1;exitDx=0;exitDy=0;entryX=0.5;entryY=0;entryDx=0;entryDy=0;sketch=1;curved=1;" edge="1" parent="1" source="31" target="32">
                    <mxGeometry relative="1" as="geometry"/>
                </mxCell>
                <mxCell id="31" value="routes.OpenAPI{*}.Install" style="whiteSpace=wrap;html=1;sketch=1;rounded=1;" vertex="1" parent="1">
                    <mxGeometry x="365" y="310" width="150" height="60" as="geometry"/>
                </mxCell>
                <mxCell id="32" value="installHealthz" style="whiteSpace=wrap;html=1;sketch=1;rounded=1;" vertex="1" parent="1">
                    <mxGeometry x="365" y="390" width="150" height="60" as="geometry"/>
                </mxCell>
                <mxCell id="35" value="SetTransportDefaults" style="whiteSpace=wrap;html=1;sketch=1;rounded=1;" vertex="1" parent="1">
                    <mxGeometry x="190" y="330" width="150" height="60" as="geometry"/>
                </mxCell>
                <mxCell id="37" value="creates the dialer infrastructure to connect to the nodes" style="text;html=1;strokeColor=none;fillColor=none;align=center;verticalAlign=middle;whiteSpace=wrap;rounded=0;sketch=1;" vertex="1" parent="1">
                    <mxGeometry x="100" y="300" width="225" height="20" as="geometry"/>
                </mxCell>
                <mxCell id="38" value="BuildGenericConfig" style="rounded=1;whiteSpace=wrap;html=1;sketch=1;" vertex="1" parent="1">
                    <mxGeometry x="280" y="460" width="120" height="60" as="geometry"/>
                </mxCell>
            </root>
        </mxGraphModel>
    </diagram>
</mxfile>